<?xml version="1.0" encoding="UTF-8"?> <svg xmlns="http://www.w3.org/2000/svg" height="1287" viewBox="0 0 212 1287" width="212"><path d="m496.159141 203.895486c107.332354-66.130076 211.034419-85.334515 311.106196-57.613317 58.474289 16.198146 265.779303-34.979676 253.759863 41.617222-14.88402 94.852169 75.59137 137.041536 58.9959 246.530758-17.9028 118.114444-119.5664 140.212915-175.281317 248.174976-55.714913 107.96206 40.196677 312.215999-81.106974 374.842535-44.951351 23.20745-89.870298 18.43486-119.84801 56.10682s4.148801 67.44346-39.012706 160.00361c-43.161508 92.56015-169.501746 41.82623-187.480025 80.38077-37.738991 80.93153-137.20179-272.63136-162.64272-324.74397-213.079881-436.467836-116.231183-450.133722-97.261042-539.382838 22.20801-104.48237 101.798288-199.787892 238.770835-285.916566z" fill="#d7e9ff" fill-rule="evenodd" transform="matrix(-.90630779 -.42261826 -.42261826 .90630779 1253.025116 278.644365)"></path></svg> 